<svg aria-roledescription="stateDiagram" role="graphics-document document" viewBox="0 0 602.46875 472" style="max-width: 602.469px; background-color: transparent;" class="statediagram" xmlns:xlink="http://www.w3.org/1999/xlink" xmlns="http://www.w3.org/2000/svg" width="100%" id="my-svg"><style>#my-svg{font-family:"trebuchet ms",verdana,arial,sans-serif;font-size:16px;fill:#333;}#my-svg .error-icon{fill:#552222;}#my-svg .error-text{fill:#552222;stroke:#552222;}#my-svg .edge-thickness-normal{stroke-width:2px;}#my-svg .edge-thickness-thick{stroke-width:3.5px;}#my-svg .edge-pattern-solid{stroke-dasharray:0;}#my-svg .edge-pattern-dashed{stroke-dasharray:3;}#my-svg .edge-pattern-dotted{stroke-dasharray:2;}#my-svg .marker{fill:#333333;stroke:#333333;}#my-svg .marker.cross{stroke:#333333;}#my-svg svg{font-family:"trebuchet ms",verdana,arial,sans-serif;font-size:16px;}#my-svg defs #statediagram-barbEnd{fill:#333333;stroke:#333333;}#my-svg g.stateGroup text{fill:#9370DB;stroke:none;font-size:10px;}#my-svg g.stateGroup text{fill:#333;stroke:none;font-size:10px;}#my-svg g.stateGroup .state-title{font-weight:bolder;fill:#131300;}#my-svg g.stateGroup rect{fill:#ECECFF;stroke:#9370DB;}#my-svg g.stateGroup line{stroke:#333333;stroke-width:1;}#my-svg .transition{stroke:#333333;stroke-width:1;fill:none;}#my-svg .stateGroup .composit{fill:white;border-bottom:1px;}#my-svg .stateGroup .alt-composit{fill:#e0e0e0;border-bottom:1px;}#my-svg .state-note{stroke:#aaaa33;fill:#fff5ad;}#my-svg .state-note text{fill:black;stroke:none;font-size:10px;}#my-svg .stateLabel .box{stroke:none;stroke-width:0;fill:#ECECFF;opacity:0.5;}#my-svg .edgeLabel .label rect{fill:#ECECFF;opacity:0.5;}#my-svg .edgeLabel .label text{fill:#333;}#my-svg .label div .edgeLabel{color:#333;}#my-svg .stateLabel text{fill:#131300;font-size:10px;font-weight:bold;}#my-svg .node circle.state-start{fill:#333333;stroke:#333333;}#my-svg .node .fork-join{fill:#333333;stroke:#333333;}#my-svg .node circle.state-end{fill:#9370DB;stroke:white;stroke-width:1.5;}#my-svg .end-state-inner{fill:white;stroke-width:1.5;}#my-svg .node rect{fill:#ECECFF;stroke:#9370DB;stroke-width:1px;}#my-svg .node polygon{fill:#ECECFF;stroke:#9370DB;stroke-width:1px;}#my-svg #statediagram-barbEnd{fill:#333333;}#my-svg .statediagram-cluster rect{fill:#ECECFF;stroke:#9370DB;stroke-width:1px;}#my-svg .cluster-label,#my-svg .nodeLabel{color:#131300;}#my-svg .statediagram-cluster rect.outer{rx:5px;ry:5px;}#my-svg .statediagram-state .divider{stroke:#9370DB;}#my-svg .statediagram-state .title-state{rx:5px;ry:5px;}#my-svg .statediagram-cluster.statediagram-cluster .inner{fill:white;}#my-svg .statediagram-cluster.statediagram-cluster-alt .inner{fill:#f0f0f0;}#my-svg .statediagram-cluster .inner{rx:0;ry:0;}#my-svg .statediagram-state rect.basic{rx:5px;ry:5px;}#my-svg .statediagram-state rect.divider{stroke-dasharray:10,10;fill:#f0f0f0;}#my-svg .note-edge{stroke-dasharray:5;}#my-svg .statediagram-note rect{fill:#fff5ad;stroke:#aaaa33;stroke-width:1px;rx:0;ry:0;}#my-svg .statediagram-note rect{fill:#fff5ad;stroke:#aaaa33;stroke-width:1px;rx:0;ry:0;}#my-svg .statediagram-note text{fill:black;}#my-svg .statediagram-note .nodeLabel{color:black;}#my-svg .statediagram .edgeLabel{color:red;}#my-svg #dependencyStart,#my-svg #dependencyEnd{fill:#333333;stroke:#333333;stroke-width:1;}#my-svg .statediagramTitleText{text-anchor:middle;font-size:18px;fill:#333;}#my-svg :root{--mermaid-font-family:"trebuchet ms",verdana,arial,sans-serif;}</style><g><defs><marker orient="auto" markerUnits="strokeWidth" markerHeight="14" markerWidth="20" refY="7" refX="19" id="my-svg_statediagram-barbEnd"><path d="M 19,7 L9,13 L14,7 L9,1 Z"/></marker></defs><g class="root"><g class="clusters"><g id="Created----parent" class="note-cluster"><rect fill="none" height="206" width="389.1875" y="91" x="8"/></g></g><g class="edgePaths"><path marker-end="url(#my-svg_statediagram-barbEnd)" style="fill:none" class="edge-thickness-normal transition" id="edge0" d="M305.5,22L305.5,27.75C305.5,33.5,305.5,45,305.5,56.5C305.5,68,305.5,79.5,305.5,89.41666666666667C305.5,99.33333333333333,305.5,107.66666666666667,305.5,111.83333333333333L305.5,116"/><path marker-end="url(#my-svg_statediagram-barbEnd)" style="fill:none" class="edge-thickness-normal transition" id="edge1" d="M320.6328883495146,150L325.7513652912622,155.75C330.8698422330097,161.5,341.1067961165049,173,360.4880804353016,186.08333333333334C379.86936475409834,199.16666666666666,408.3949795081967,213.83333333333334,422.6577868852459,221.16666666666666L436.9205942622951,228.5"/><path marker-end="url(#my-svg_statediagram-barbEnd)" style="fill:none" class="edge-thickness-normal transition" id="edge2" d="M507.78125,237.3L514.5416666666666,235.83333333333334C521.3020833333334,234.36666666666667,534.8229166666666,231.4333333333333,543.2734375,229.96666666666667C551.7239583333334,228.5,555.1041666666666,228.5,558.484375,231.33333333333334C561.8645833333334,234.16666666666666,565.2447916666666,239.83333333333334,565.2447916666666,245.5C565.2447916666666,251.16666666666666,561.8645833333334,256.8333333333333,558.484375,259.6666666666667C555.1041666666666,262.5,551.7239583333334,262.5,543.2734375,261.03333333333336C534.8229166666666,259.56666666666666,521.3020833333334,256.6333333333333,514.5416666666666,255.16666666666666L507.78125,253.7"/><path marker-end="url(#my-svg_statediagram-barbEnd)" style="fill:none" class="edge-thickness-normal transition" id="edge3" d="M305.5,150L305.5,155.75C305.5,161.5,305.5,173,305.5,188.91666666666666C305.5,204.83333333333334,305.5,225.16666666666666,305.5,243.91666666666666C305.5,262.6666666666667,305.5,279.8333333333333,305.5,294.1666666666667C305.5,308.5,305.5,320,314.682380157767,331.5C323.86476031553394,343,342.22952063106794,354.5,351.411900788835,360.25L360.59428094660194,366"/><path marker-end="url(#my-svg_statediagram-barbEnd)" style="fill:none" class="edge-thickness-normal transition" id="edge4" d="M469.984375,262.5L469.984375,268.25C469.984375,274,469.984375,285.5,469.984375,297C469.984375,308.5,469.984375,320,460.801994842233,331.5C451.61961468446606,343,433.25485436893206,354.5,424.0724742111651,360.25L414.89009405339806,366"/><path marker-end="url(#my-svg_statediagram-barbEnd)" style="fill:none" class="edge-thickness-normal transition" id="edge5" d="M387.7421875,400L387.7421875,404.1666666666667C387.7421875,408.3333333333333,387.7421875,416.6666666666667,387.7421875,425C387.7421875,433.3333333333333,387.7421875,441.6666666666667,387.7421875,445.8333333333333L387.7421875,450"/><path style="fill:none" class="edge-thickness-normal transition note-edge" d="M269.546875,144.53523800253092L248.78645833333334,151.19603166877576C228.02604166666666,157.8568253350206,186.50520833333334,171.17841266751032,165.74479166666666,183.5892063337552C144.984375,196,144.984375,207.5,144.984375,213.25L144.984375,219"/></g><g class="edgeLabels"><g transform="translate(305.5, 56.5)" class="edgeLabel"><g transform="translate(-24, -9.5)" class="label"><rect height="19" width="48" ry="0" rx="0"/><foreignObject height="19" width="48"><div style="display: inline-block; white-space: nowrap;" xmlns="http://www.w3.org/1999/xhtml"><span class="edgeLabel">Create</span></div></foreignObject></g></g><g transform="translate(351.34375, 184.5)" class="edgeLabel"><g transform="translate(-25.84375, -9.5)" class="label"><rect height="19" width="51.6875" ry="0" rx="0"/><foreignObject height="19" width="51.6875"><div style="display: inline-block; white-space: nowrap;" xmlns="http://www.w3.org/1999/xhtml"><span class="edgeLabel">Update</span></div></foreignObject></g></g><g transform="translate(568.625, 245.5)" class="edgeLabel"><g transform="translate(-25.84375, -9.5)" class="label"><rect height="19" width="51.6875" ry="0" rx="0"/><foreignObject height="19" width="51.6875"><div style="display: inline-block; white-space: nowrap;" xmlns="http://www.w3.org/1999/xhtml"><span class="edgeLabel">Update</span></div></foreignObject></g></g><g transform="translate(305.5, 245.5)" class="edgeLabel"><g transform="translate(-23.53125, -9.5)" class="label"><rect height="19" width="47.0625" ry="0" rx="0"/><foreignObject height="19" width="47.0625"><div style="display: inline-block; white-space: nowrap;" xmlns="http://www.w3.org/1999/xhtml"><span class="edgeLabel">Delete</span></div></foreignObject></g></g><g transform="translate(469.984375, 331.5)" class="edgeLabel"><g transform="translate(-23.53125, -9.5)" class="label"><rect height="19" width="47.0625" ry="0" rx="0"/><foreignObject height="19" width="47.0625"><div style="display: inline-block; white-space: nowrap;" xmlns="http://www.w3.org/1999/xhtml"><span class="edgeLabel">Delete</span></div></foreignObject></g></g><g class="edgeLabel"><g transform="translate(0, 0)" class="label"><rect height="0" width="0" ry="0" rx="0"/><foreignObject height="0" width="0"><div style="display: inline-block; white-space: nowrap;" xmlns="http://www.w3.org/1999/xhtml"><span class="edgeLabel"></span></div></foreignObject></g></g><g class="edgeLabel"><g transform="translate(0, 0)" class="label"><rect height="0" width="0" ry="0" rx="0"/><foreignObject height="0" width="0"><div style="display: inline-block; white-space: nowrap;" xmlns="http://www.w3.org/1999/xhtml"><span class="edgeLabel"></span></div></foreignObject></g></g></g><g class="nodes"><g transform="translate(305.5, 15)" id="state-root_start-0" class="node default"><circle height="14" width="14" r="7" class="state-start"/></g><g transform="translate(305.5, 133)" id="state-Created-6" class="node  statediagram-state undefined"><rect height="34" width="71.90625" y="-17" x="-35.953125" style="" class="basic label-container"/><g transform="translate(-28.453125, -9.5)" style="" class="label"><rect/><foreignObject height="19" width="56.90625"><div style="display: inline-block; white-space: nowrap;" xmlns="http://www.w3.org/1999/xhtml"><span class="nodeLabel">Created</span></div></foreignObject></g></g><g transform="translate(469.984375, 245.5)" id="state-Updated-4" class="node  statediagram-state undefined"><rect height="34" width="75.59375" y="-17" x="-37.796875" style="" class="basic label-container"/><g transform="translate(-30.296875, -9.5)" style="" class="label"><rect/><foreignObject height="19" width="60.59375"><div style="display: inline-block; white-space: nowrap;" xmlns="http://www.w3.org/1999/xhtml"><span class="nodeLabel">Updated</span></div></foreignObject></g></g><g transform="translate(387.7421875, 383)" id="state-Deleted-5" class="node  statediagram-state undefined"><rect height="34" width="70.96875" y="-17" x="-35.484375" style="" class="basic label-container"/><g transform="translate(-27.984375, -9.5)" style="" class="label"><rect/><foreignObject height="19" width="55.96875"><div style="display: inline-block; white-space: nowrap;" xmlns="http://www.w3.org/1999/xhtml"><span class="nodeLabel">Deleted</span></div></foreignObject></g></g><g transform="translate(387.7421875, 457)" id="state-root_end-5" class="node default"><circle height="14" width="14" r="7" class="state-start"/><circle height="10" width="10" r="5" class="state-end"/></g><g transform="translate(144.984375, 245.5)" id="state-Created----note-6" class="node statediagram-note"><rect height="53" width="203.96875" y="-26.5" x="-101.984375"/><g transform="translate(-94.484375, -19)" style="" class="label"><rect/><foreignObject height="38" width="188.96875"><div style="display: inline-block; white-space: nowrap;" xmlns="http://www.w3.org/1999/xhtml"><span class="nodeLabel">Container metadata exists<br />        No running process yet</span></div></foreignObject></g></g></g></g></g></svg>