<svg aria-roledescription="stateDiagram" role="graphics-document document" viewBox="0 0 431.296875 422" style="max-width: 431.297px; background-color: transparent;" class="statediagram" xmlns:xlink="http://www.w3.org/1999/xlink" xmlns="http://www.w3.org/2000/svg" width="100%" id="my-svg"><style>#my-svg{font-family:"trebuchet ms",verdana,arial,sans-serif;font-size:16px;fill:#333;}#my-svg .error-icon{fill:#552222;}#my-svg .error-text{fill:#552222;stroke:#552222;}#my-svg .edge-thickness-normal{stroke-width:2px;}#my-svg .edge-thickness-thick{stroke-width:3.5px;}#my-svg .edge-pattern-solid{stroke-dasharray:0;}#my-svg .edge-pattern-dashed{stroke-dasharray:3;}#my-svg .edge-pattern-dotted{stroke-dasharray:2;}#my-svg .marker{fill:#333333;stroke:#333333;}#my-svg .marker.cross{stroke:#333333;}#my-svg svg{font-family:"trebuchet ms",verdana,arial,sans-serif;font-size:16px;}#my-svg defs #statediagram-barbEnd{fill:#333333;stroke:#333333;}#my-svg g.stateGroup text{fill:#9370DB;stroke:none;font-size:10px;}#my-svg g.stateGroup text{fill:#333;stroke:none;font-size:10px;}#my-svg g.stateGroup .state-title{font-weight:bolder;fill:#131300;}#my-svg g.stateGroup rect{fill:#ECECFF;stroke:#9370DB;}#my-svg g.stateGroup line{stroke:#333333;stroke-width:1;}#my-svg .transition{stroke:#333333;stroke-width:1;fill:none;}#my-svg .stateGroup .composit{fill:white;border-bottom:1px;}#my-svg .stateGroup .alt-composit{fill:#e0e0e0;border-bottom:1px;}#my-svg .state-note{stroke:#aaaa33;fill:#fff5ad;}#my-svg .state-note text{fill:black;stroke:none;font-size:10px;}#my-svg .stateLabel .box{stroke:none;stroke-width:0;fill:#ECECFF;opacity:0.5;}#my-svg .edgeLabel .label rect{fill:#ECECFF;opacity:0.5;}#my-svg .edgeLabel .label text{fill:#333;}#my-svg .label div .edgeLabel{color:#333;}#my-svg .stateLabel text{fill:#131300;font-size:10px;font-weight:bold;}#my-svg .node circle.state-start{fill:#333333;stroke:#333333;}#my-svg .node .fork-join{fill:#333333;stroke:#333333;}#my-svg .node circle.state-end{fill:#9370DB;stroke:white;stroke-width:1.5;}#my-svg .end-state-inner{fill:white;stroke-width:1.5;}#my-svg .node rect{fill:#ECECFF;stroke:#9370DB;stroke-width:1px;}#my-svg .node polygon{fill:#ECECFF;stroke:#9370DB;stroke-width:1px;}#my-svg #statediagram-barbEnd{fill:#333333;}#my-svg .statediagram-cluster rect{fill:#ECECFF;stroke:#9370DB;stroke-width:1px;}#my-svg .cluster-label,#my-svg .nodeLabel{color:#131300;}#my-svg .statediagram-cluster rect.outer{rx:5px;ry:5px;}#my-svg .statediagram-state .divider{stroke:#9370DB;}#my-svg .statediagram-state .title-state{rx:5px;ry:5px;}#my-svg .statediagram-cluster.statediagram-cluster .inner{fill:white;}#my-svg .statediagram-cluster.statediagram-cluster-alt .inner{fill:#f0f0f0;}#my-svg .statediagram-cluster .inner{rx:0;ry:0;}#my-svg .statediagram-state rect.basic{rx:5px;ry:5px;}#my-svg .statediagram-state rect.divider{stroke-dasharray:10,10;fill:#f0f0f0;}#my-svg .note-edge{stroke-dasharray:5;}#my-svg .statediagram-note rect{fill:#fff5ad;stroke:#aaaa33;stroke-width:1px;rx:0;ry:0;}#my-svg .statediagram-note rect{fill:#fff5ad;stroke:#aaaa33;stroke-width:1px;rx:0;ry:0;}#my-svg .statediagram-note text{fill:black;}#my-svg .statediagram-note .nodeLabel{color:black;}#my-svg .statediagram .edgeLabel{color:red;}#my-svg #dependencyStart,#my-svg #dependencyEnd{fill:#333333;stroke:#333333;stroke-width:1;}#my-svg .statediagramTitleText{text-anchor:middle;font-size:18px;fill:#333;}#my-svg :root{--mermaid-font-family:"trebuchet ms",verdana,arial,sans-serif;}</style><g><defs><marker orient="auto" markerUnits="strokeWidth" markerHeight="14" markerWidth="20" refY="7" refX="19" id="my-svg_statediagram-barbEnd"><path d="M 19,7 L9,13 L14,7 L9,1 Z"/></marker></defs><g class="root"><g class="clusters"/><g class="edgePaths"><path marker-end="url(#my-svg_statediagram-barbEnd)" style="fill:none" class="edge-thickness-normal transition" id="edge0" d="M62.0546875,22L62.0546875,27.75C62.0546875,33.5,62.0546875,45,62.0546875,56.5C62.0546875,68,62.0546875,79.5,62.0546875,85.25L62.0546875,91"/><path marker-end="url(#my-svg_statediagram-barbEnd)" style="fill:none" class="edge-thickness-normal transition" id="edge1" d="M62.0546875,125L62.0546875,130.75C62.0546875,136.5,62.0546875,148,62.0546875,159.5C62.0546875,171,62.0546875,182.5,62.0546875,188.25L62.0546875,194"/><path marker-end="url(#my-svg_statediagram-barbEnd)" style="fill:none" class="edge-thickness-normal transition" id="edge2" d="M50.90101638349515,228L47.128451152912625,233.75C43.355885922330096,239.5,35.81075546116505,251,35.81075546116505,262.5C35.81075546116505,274,43.355885922330096,285.5,47.128451152912625,291.25L50.90101638349515,297"/><path marker-end="url(#my-svg_statediagram-barbEnd)" style="fill:none" class="edge-thickness-normal transition" id="edge3" d="M73.20835861650485,297L76.98092384708737,291.25C80.7534890776699,285.5,88.29861953883494,274,88.29861953883494,262.5C88.29861953883494,251,80.7534890776699,239.5,76.98092384708737,233.75L73.20835861650485,228"/><path marker-end="url(#my-svg_statediagram-barbEnd)" style="fill:none" class="edge-thickness-normal transition" id="edge4" d="M97.765625,224.98814546318854L113.7265625,231.24012121932378C129.6875,237.49209697545902,161.609375,249.9960484877295,177.5703125,261.9980242438648C193.53125,274,193.53125,285.5,193.53125,291.25L193.53125,297"/><path marker-end="url(#my-svg_statediagram-barbEnd)" style="fill:none" class="edge-thickness-normal transition" id="edge5" d="M193.53125,331L193.53125,336.75C193.53125,342.5,193.53125,354,193.53125,365.5C193.53125,377,193.53125,388.5,193.53125,394.25L193.53125,400"/><path marker-end="url(#my-svg_statediagram-barbEnd)" style="fill:none" class="edge-thickness-normal transition" id="edge6" d="M97.765625,205.14989083791312L109.109375,203.2915756982609C120.453125,201.43326055860874,143.140625,197.71663027930435,157.3203125,195.85831513965218C171.5,194,177.171875,194,182.84375,196.83333333333334C188.515625,199.66666666666666,194.1875,205.33333333333334,194.1875,211C194.1875,216.66666666666666,188.515625,222.33333333333334,182.84375,225.16666666666666C177.171875,228,171.5,228,157.3203125,226.14168486034782C143.140625,224.28336972069565,120.453125,220.56673944139126,109.109375,218.7084243017391L97.765625,216.85010916208688"/><path marker-end="url(#my-svg_statediagram-barbEnd)" style="fill:none" class="edge-thickness-normal transition" id="edge7" d="M97.765625,208.07123384047136L126.3611111111111,205.7260282003928C154.9565972222222,203.38082256031421,212.14756944444443,198.69041128015712,247.89192708333334,196.34520564007858C283.63628472222223,194,297.93402777777777,194,312.2317708333333,196.83333333333334C326.5295138888889,199.66666666666666,340.82725694444446,205.33333333333334,340.8272569444445,211C340.82725694444446,216.66666666666666,326.5295138888889,222.33333333333334,312.2317708333333,225.16666666666666C297.93402777777777,228,283.63628472222223,228,247.89192708333334,225.65479435992142C212.14756944444443,223.30958871984288,154.9565972222222,218.61917743968579,126.3611111111111,216.2739717996072L97.765625,213.92876615952864"/></g><g class="edgeLabels"><g transform="translate(62.0546875, 56.5)" class="edgeLabel"><g transform="translate(-24, -9.5)" class="label"><rect height="19" width="48" ry="0" rx="0"/><foreignObject height="19" width="48"><div style="display: inline-block; white-space: nowrap;" xmlns="http://www.w3.org/1999/xhtml"><span class="edgeLabel">Create</span></div></foreignObject></g></g><g transform="translate(62.0546875, 159.5)" class="edgeLabel"><g transform="translate(-17.5078125, -9.5)" class="label"><rect height="19" width="35.015625" ry="0" rx="0"/><foreignObject height="19" width="35.015625"><div style="display: inline-block; white-space: nowrap;" xmlns="http://www.w3.org/1999/xhtml"><span class="edgeLabel">Start</span></div></foreignObject></g></g><g transform="translate(28.265625, 262.5)" class="edgeLabel"><g transform="translate(-20.265625, -9.5)" class="label"><rect height="19" width="40.53125" ry="0" rx="0"/><foreignObject height="19" width="40.53125"><div style="display: inline-block; white-space: nowrap;" xmlns="http://www.w3.org/1999/xhtml"><span class="edgeLabel">Pause</span></div></foreignObject></g></g><g transform="translate(95.84375, 262.5)" class="edgeLabel"><g transform="translate(-27.3125, -9.5)" class="label"><rect height="19" width="54.625" ry="0" rx="0"/><foreignObject height="19" width="54.625"><div style="display: inline-block; white-space: nowrap;" xmlns="http://www.w3.org/1999/xhtml"><span class="edgeLabel">Resume</span></div></foreignObject></g></g><g transform="translate(193.53125, 262.5)" class="edgeLabel"><g transform="translate(-29.296875, -9.5)" class="label"><rect height="19" width="58.59375" ry="0" rx="0"/><foreignObject height="19" width="58.59375"><div style="display: inline-block; white-space: nowrap;" xmlns="http://www.w3.org/1999/xhtml"><span class="edgeLabel">Kill/Exit</span></div></foreignObject></g></g><g transform="translate(193.53125, 365.5)" class="edgeLabel"><g transform="translate(-23.53125, -9.5)" class="label"><rect height="19" width="47.0625" ry="0" rx="0"/><foreignObject height="19" width="47.0625"><div style="display: inline-block; white-space: nowrap;" xmlns="http://www.w3.org/1999/xhtml"><span class="edgeLabel">Delete</span></div></foreignObject></g></g><g transform="translate(199.859375, 211)" class="edgeLabel"><g transform="translate(-67.09375, -9.5)" class="label"><rect height="19" width="134.1875" ry="0" rx="0"/><foreignObject height="19" width="134.1875"><div style="display: inline-block; white-space: nowrap;" xmlns="http://www.w3.org/1999/xhtml"><span class="edgeLabel">Exec (add process)</span></div></foreignObject></g></g><g transform="translate(355.125, 211)" class="edgeLabel"><g transform="translate(-68.171875, -9.5)" class="label"><rect height="19" width="136.34375" ry="0" rx="0"/><foreignObject height="19" width="136.34375"><div style="display: inline-block; white-space: nowrap;" xmlns="http://www.w3.org/1999/xhtml"><span class="edgeLabel">Update (resources)</span></div></foreignObject></g></g></g><g class="nodes"><g transform="translate(62.0546875, 15)" id="state-root_start-0" class="node default"><circle height="14" width="14" r="7" class="state-start"/></g><g transform="translate(62.0546875, 108)" id="state-Created-1" class="node  statediagram-state undefined"><rect height="34" width="71.90625" y="-17" x="-35.953125" style="" class="basic label-container"/><g transform="translate(-28.453125, -9.5)" style="" class="label"><rect/><foreignObject height="19" width="56.90625"><div style="display: inline-block; white-space: nowrap;" xmlns="http://www.w3.org/1999/xhtml"><span class="nodeLabel">Created</span></div></foreignObject></g></g><g transform="translate(62.0546875, 211)" id="state-Running-7" class="node  statediagram-state undefined"><rect height="34" width="71.421875" y="-17" x="-35.7109375" style="" class="basic label-container"/><g transform="translate(-28.2109375, -9.5)" style="" class="label"><rect/><foreignObject height="19" width="56.421875"><div style="display: inline-block; white-space: nowrap;" xmlns="http://www.w3.org/1999/xhtml"><span class="nodeLabel">Running</span></div></foreignObject></g></g><g transform="translate(62.0546875, 314)" id="state-Paused-3" class="node  statediagram-state undefined"><rect height="34" width="64.4375" y="-17" x="-32.21875" style="" class="basic label-container"/><g transform="translate(-24.71875, -9.5)" style="" class="label"><rect/><foreignObject height="19" width="49.4375"><div style="display: inline-block; white-space: nowrap;" xmlns="http://www.w3.org/1999/xhtml"><span class="nodeLabel">Paused</span></div></foreignObject></g></g><g transform="translate(193.53125, 314)" id="state-Stopped-5" class="node  statediagram-state undefined"><rect height="34" width="73.09375" y="-17" x="-36.546875" style="" class="basic label-container"/><g transform="translate(-29.046875, -9.5)" style="" class="label"><rect/><foreignObject height="19" width="58.09375"><div style="display: inline-block; white-space: nowrap;" xmlns="http://www.w3.org/1999/xhtml"><span class="nodeLabel">Stopped</span></div></foreignObject></g></g><g transform="translate(193.53125, 407)" id="state-root_end-5" class="node default"><circle height="14" width="14" r="7" class="state-start"/><circle height="10" width="10" r="5" class="state-end"/></g></g></g></g></svg>