<svg aria-roledescription="flowchart-v2" role="graphics-document document" viewBox="-8 -8 2145.5 745.0208129882812" style="max-width: 2145.5px; background-color: transparent;" xmlns:xlink="http://www.w3.org/1999/xlink" xmlns="http://www.w3.org/2000/svg" width="100%" id="my-svg"><style>#my-svg{font-family:"trebuchet ms",verdana,arial,sans-serif;font-size:16px;fill:#333;}#my-svg .error-icon{fill:#552222;}#my-svg .error-text{fill:#552222;stroke:#552222;}#my-svg .edge-thickness-normal{stroke-width:2px;}#my-svg .edge-thickness-thick{stroke-width:3.5px;}#my-svg .edge-pattern-solid{stroke-dasharray:0;}#my-svg .edge-pattern-dashed{stroke-dasharray:3;}#my-svg .edge-pattern-dotted{stroke-dasharray:2;}#my-svg .marker{fill:#333333;stroke:#333333;}#my-svg .marker.cross{stroke:#333333;}#my-svg svg{font-family:"trebuchet ms",verdana,arial,sans-serif;font-size:16px;}#my-svg .label{font-family:"trebuchet ms",verdana,arial,sans-serif;color:#333;}#my-svg .cluster-label text{fill:#333;}#my-svg .cluster-label span,#my-svg p{color:#333;}#my-svg .label text,#my-svg span,#my-svg p{fill:#333;color:#333;}#my-svg .node rect,#my-svg .node circle,#my-svg .node ellipse,#my-svg .node polygon,#my-svg .node path{fill:#ECECFF;stroke:#9370DB;stroke-width:1px;}#my-svg .flowchart-label text{text-anchor:middle;}#my-svg .node .label{text-align:center;}#my-svg .node.clickable{cursor:pointer;}#my-svg .arrowheadPath{fill:#333333;}#my-svg .edgePath .path{stroke:#333333;stroke-width:2.0px;}#my-svg .flowchart-link{stroke:#333333;fill:none;}#my-svg .edgeLabel{background-color:#e8e8e8;text-align:center;}#my-svg .edgeLabel rect{opacity:0.5;background-color:#e8e8e8;fill:#e8e8e8;}#my-svg .labelBkg{background-color:rgba(232, 232, 232, 0.5);}#my-svg .cluster rect{fill:#ffffde;stroke:#aaaa33;stroke-width:1px;}#my-svg .cluster text{fill:#333;}#my-svg .cluster span,#my-svg p{color:#333;}#my-svg div.mermaidTooltip{position:absolute;text-align:center;max-width:200px;padding:2px;font-family:"trebuchet ms",verdana,arial,sans-serif;font-size:12px;background:hsl(80, 100%, 96.2745098039%);border:1px solid #aaaa33;border-radius:2px;pointer-events:none;z-index:100;}#my-svg .flowchartTitleText{text-anchor:middle;font-size:18px;fill:#333;}#my-svg :root{--mermaid-font-family:"trebuchet ms",verdana,arial,sans-serif;}</style><g><marker orient="auto" markerHeight="12" markerWidth="12" markerUnits="userSpaceOnUse" refY="5" refX="6" viewBox="0 0 10 10" class="marker flowchart" id="my-svg_flowchart-pointEnd"><path style="stroke-width: 1; stroke-dasharray: 1, 0;" class="arrowMarkerPath" d="M 0 0 L 10 5 L 0 10 z"/></marker><marker orient="auto" markerHeight="12" markerWidth="12" markerUnits="userSpaceOnUse" refY="5" refX="4.5" viewBox="0 0 10 10" class="marker flowchart" id="my-svg_flowchart-pointStart"><path style="stroke-width: 1; stroke-dasharray: 1, 0;" class="arrowMarkerPath" d="M 0 5 L 10 10 L 10 0 z"/></marker><marker orient="auto" markerHeight="11" markerWidth="11" markerUnits="userSpaceOnUse" refY="5" refX="11" viewBox="0 0 10 10" class="marker flowchart" id="my-svg_flowchart-circleEnd"><circle style="stroke-width: 1; stroke-dasharray: 1, 0;" class="arrowMarkerPath" r="5" cy="5" cx="5"/></marker><marker orient="auto" markerHeight="11" markerWidth="11" markerUnits="userSpaceOnUse" refY="5" refX="-1" viewBox="0 0 10 10" class="marker flowchart" id="my-svg_flowchart-circleStart"><circle style="stroke-width: 1; stroke-dasharray: 1, 0;" class="arrowMarkerPath" r="5" cy="5" cx="5"/></marker><marker orient="auto" markerHeight="11" markerWidth="11" markerUnits="userSpaceOnUse" refY="5.2" refX="12" viewBox="0 0 11 11" class="marker cross flowchart" id="my-svg_flowchart-crossEnd"><path style="stroke-width: 2; stroke-dasharray: 1, 0;" class="arrowMarkerPath" d="M 1,1 l 9,9 M 10,1 l -9,9"/></marker><marker orient="auto" markerHeight="11" markerWidth="11" markerUnits="userSpaceOnUse" refY="5.2" refX="-1" viewBox="0 0 11 11" class="marker cross flowchart" id="my-svg_flowchart-crossStart"><path style="stroke-width: 2; stroke-dasharray: 1, 0;" class="arrowMarkerPath" d="M 1,1 l 9,9 M 10,1 l -9,9"/></marker><g class="root"><g class="clusters"><g id="Storage" class="cluster default flowchart-label"><rect height="109.02082061767578" width="579.234375" y="511" x="0" ry="0" rx="0" style=""/><g transform="translate(262.609375, 511)" class="cluster-label"><foreignObject height="19" width="54.015625"><div style="display: inline-block; white-space: nowrap;" xmlns="http://www.w3.org/1999/xhtml"><span class="nodeLabel">Storage</span></div></foreignObject></g></g><g id="subGraph4" class="cluster default flowchart-label"><rect height="218.02082061767578" width="1176.81640625" y="511" x="930.671875" ry="0" rx="0" style=""/><g transform="translate(1467.369140625, 511)" class="cluster-label"><foreignObject height="19" width="103.421875"><div style="display: inline-block; white-space: nowrap;" xmlns="http://www.w3.org/1999/xhtml"><span class="nodeLabel">Runtime Layer</span></div></foreignObject></g></g><g id="subGraph3" class="cluster default flowchart-label"><rect height="193" width="1575.87109375" y="134" x="43.31640625" ry="0" rx="0" style=""/><g transform="translate(781.775390625, 134)" class="cluster-label"><foreignObject height="19" width="98.953125"><div style="display: inline-block; white-space: nowrap;" xmlns="http://www.w3.org/1999/xhtml"><span class="nodeLabel">Plugin System</span></div></foreignObject></g></g><g id="subGraph2" class="cluster default flowchart-label"><rect height="84" width="1616.12109375" y="377" x="19.015625" ry="0" rx="0" style=""/><g transform="translate(779.029296875, 377)" class="cluster-label"><foreignObject height="19" width="96.09375"><div style="display: inline-block; white-space: nowrap;" xmlns="http://www.w3.org/1999/xhtml"><span class="nodeLabel">Core Services</span></div></foreignObject></g></g><g id="subGraph1" class="cluster default flowchart-label"><rect height="84" width="490.3125" y="134" x="1639.1875" ry="0" rx="0" style=""/><g transform="translate(1850.8515625, 134)" class="cluster-label"><foreignObject height="19" width="66.984375"><div style="display: inline-block; white-space: nowrap;" xmlns="http://www.w3.org/1999/xhtml"><span class="nodeLabel">API Layer</span></div></foreignObject></g></g><g id="subGraph0" class="cluster default flowchart-label"><rect height="84" width="523.875" y="0" x="1566.8828125" ry="0" rx="0" style=""/><g transform="translate(1785.40625, 0)" class="cluster-label"><foreignObject height="19" width="86.828125"><div style="display: inline-block; white-space: nowrap;" xmlns="http://www.w3.org/1999/xhtml"><span class="nodeLabel">Client Layer</span></div></foreignObject></g></g></g><g class="edgePaths"><path marker-end="url(#my-svg_flowchart-pointEnd)" style="fill:none;" class="edge-thickness-normal edge-pattern-solid flowchart-link LS-CLI LE-GRPC" id="L-CLI-GRPC-0" d="M1679.1875,59L1679.1875,63.166666666666664C1679.1875,67.33333333333333,1679.1875,75.66666666666667,1679.1875,84C1679.1875,92.33333333333333,1679.1875,100.66666666666667,1679.1875,109C1679.1875,117.33333333333333,1679.1875,125.66666666666667,1696.7519331491483,134.23909059962614C1714.3163662982963,142.81151453258562,1749.4452325965929,151.6230290651712,1767.009665745741,156.028786331464L1784.574098894889,160.4345435977568"/><path marker-end="url(#my-svg_flowchart-pointEnd)" style="fill:none;" class="edge-thickness-normal edge-pattern-solid flowchart-link LS-SDK LE-GRPC" id="L-SDK-GRPC-0" d="M1863.2109375,59L1863.2109375,63.166666666666664C1863.2109375,67.33333333333333,1863.2109375,75.66666666666667,1863.2109375,84C1863.2109375,92.33333333333333,1863.2109375,100.66666666666667,1863.2109375,109C1863.2109375,117.33333333333333,1863.2109375,125.66666666666667,1861.8902773505658,133.17838349274822C1860.5696172011315,140.6901003188298,1857.9282969022631,147.3802006376596,1856.6076367528287,150.7252507970745L1855.2869766033948,154.0703009564894"/><path marker-end="url(#my-svg_flowchart-pointEnd)" style="fill:none;" class="edge-thickness-normal edge-pattern-solid flowchart-link LS-CRI LE-GRPC" id="L-CRI-GRPC-0" d="M2012.84375,59L2012.84375,63.166666666666664C2012.84375,67.33333333333333,2012.84375,75.66666666666667,2012.84375,84C2012.84375,92.33333333333333,2012.84375,100.66666666666667,2012.84375,109C2012.84375,117.33333333333333,2012.84375,125.66666666666667,1995.4833685449084,134.2200415518275C1978.1229870898167,142.77341643698836,1943.402224179633,151.54683287397674,1926.0418427245415,155.9335410924709L1908.6814612694498,160.3202493109651"/><path marker-end="url(#my-svg_flowchart-pointEnd)" style="fill:none;" class="edge-thickness-normal edge-pattern-solid flowchart-link LS-GRPC LE-ServicePlugins" id="L-GRPC-ServicePlugins-0" d="M1846.62890625,193L1846.62890625,197.16666666666666C1846.62890625,201.33333333333334,1846.62890625,209.66666666666666,1744.9166666666667,218C1643.2044270833333,226.33333333333334,1439.7799479166667,234.66666666666666,1273.3841385911462,244.81423975876092C1106.9883292656257,254.96181285085518,977.6211897812514,266.92362570171036,912.9376200390642,272.90453212713794L848.254050296877,278.8854385525655"/><path marker-end="url(#my-svg_flowchart-pointEnd)" style="fill:none;" class="edge-thickness-normal edge-pattern-solid flowchart-link LS-TTRPC LE-Shim" id="L-TTRPC-Shim-0" d="M2015.73046875,193L2015.73046875,197.16666666666666C2015.73046875,201.33333333333334,2015.73046875,209.66666666666666,2015.73046875,218C2015.73046875,226.33333333333334,2015.73046875,234.66666666666666,2015.73046875,245.83333333333334C2015.73046875,257,2015.73046875,271,2015.73046875,285C2015.73046875,299,2015.73046875,313,2015.73046875,324.1666666666667C2015.73046875,335.3333333333333,2015.73046875,343.6666666666667,2015.73046875,352C2015.73046875,360.3333333333333,2015.73046875,368.6666666666667,2015.73046875,379.8333333333333C2015.73046875,391,2015.73046875,405,2015.73046875,419C2015.73046875,433,2015.73046875,447,2015.73046875,458.1666666666667C2015.73046875,469.3333333333333,2015.73046875,477.6666666666667,2015.73046875,486C2015.73046875,494.3333333333333,2015.73046875,502.6666666666667,1956.7924054828143,513.906075804006C1897.8543422156283,525.1454849413454,1779.978215681257,539.290969882691,1721.0401524140714,546.3637123533637L1662.1020891468856,553.4364548240364"/><path marker-end="url(#my-svg_flowchart-pointEnd)" style="fill:none;" class="edge-thickness-normal edge-pattern-solid flowchart-link LS-ServicePlugins LE-Content" id="L-ServicePlugins-Content-0" d="M721.2734375,288.8095559721915L619.6015625,295.1746299768262C517.9296875,301.539703981461,314.5859375,314.2698519907305,212.9140625,324.8015926620319C111.2421875,335.3333333333333,111.2421875,343.6666666666667,111.2421875,352C111.2421875,360.3333333333333,111.2421875,368.6666666666667,111.2421875,376.1166666666666C111.2421875,383.56666666666666,111.2421875,390.1333333333334,111.2421875,393.4166666666667L111.2421875,396.7"/><path marker-end="url(#my-svg_flowchart-pointEnd)" style="fill:none;" class="edge-thickness-normal edge-pattern-solid flowchart-link LS-ServicePlugins LE-Metadata" id="L-ServicePlugins-Metadata-0" d="M721.2734375,290.0961631330519L647.8307291666666,296.2468026108766C574.3880208333334,302.39744208870127,427.5026041666667,314.69872104435063,354.0598958333333,325.016027188842C280.6171875,335.3333333333333,280.6171875,343.6666666666667,280.6171875,352C280.6171875,360.3333333333333,280.6171875,368.6666666666667,280.6171875,376.1166666666666C280.6171875,383.56666666666666,280.6171875,390.1333333333334,280.6171875,393.4166666666667L280.6171875,396.7"/><path marker-end="url(#my-svg_flowchart-pointEnd)" style="fill:none;" class="edge-thickness-normal edge-pattern-solid flowchart-link LS-ServicePlugins LE-Snapshots" id="L-ServicePlugins-Snapshots-0" d="M721.2734375,293.04826924496274L678.4895833333334,298.70689103746895C635.7057291666666,304.36551282997516,550.1380208333334,315.6827564149876,507.3541666666667,325.5080448741605C464.5703125,335.3333333333333,464.5703125,343.6666666666667,464.5703125,352C464.5703125,360.3333333333333,464.5703125,368.6666666666667,464.5703125,376.1166666666666C464.5703125,383.56666666666666,464.5703125,390.1333333333334,464.5703125,393.4166666666667L464.5703125,396.7"/><path marker-end="url(#my-svg_flowchart-pointEnd)" style="fill:none;" class="edge-thickness-normal edge-pattern-solid flowchart-link LS-ServicePlugins LE-Images" id="L-ServicePlugins-Images-0" d="M726.0465029761905,302L712.301773313492,306.1666666666667C698.5570436507936,310.3333333333333,671.0675843253968,318.6666666666667,657.3228546626984,327C643.578125,335.3333333333333,643.578125,343.6666666666667,643.578125,352C643.578125,360.3333333333333,643.578125,368.6666666666667,643.578125,376.1166666666666C643.578125,383.56666666666666,643.578125,390.1333333333334,643.578125,393.4166666666667L643.578125,396.7"/><path marker-end="url(#my-svg_flowchart-pointEnd)" style="fill:none;" class="edge-thickness-normal edge-pattern-solid flowchart-link LS-ServicePlugins LE-Containers" id="L-ServicePlugins-Containers-0" d="M798.0561755952381,302L801.9608754960318,306.1666666666667C805.8655753968254,310.3333333333333,813.6749751984127,318.6666666666667,817.5796750992064,327C821.484375,335.3333333333333,821.484375,343.6666666666667,821.484375,352C821.484375,360.3333333333333,821.484375,368.6666666666667,821.484375,376.1166666666666C821.484375,383.56666666666666,821.484375,390.1333333333334,821.484375,393.4166666666667L821.484375,396.7"/><path marker-end="url(#my-svg_flowchart-pointEnd)" style="fill:none;" class="edge-thickness-normal edge-pattern-solid flowchart-link LS-ServicePlugins LE-Tasks" id="L-ServicePlugins-Tasks-0" d="M842.9765625,295.9350358497819L871.7884114583334,301.1125298748182C900.6002604166666,306.2900238998546,958.2239583333334,316.6450119499273,987.0358072916666,325.9891726416303C1015.84765625,335.3333333333333,1015.84765625,343.6666666666667,1015.84765625,352C1015.84765625,360.3333333333333,1015.84765625,368.6666666666667,1015.84765625,376.1166666666666C1015.84765625,383.56666666666666,1015.84765625,390.1333333333334,1015.84765625,393.4166666666667L1015.84765625,396.7"/><path marker-end="url(#my-svg_flowchart-pointEnd)" style="fill:none;" class="edge-thickness-normal edge-pattern-solid flowchart-link LS-ServicePlugins LE-Events" id="L-ServicePlugins-Events-0" d="M842.9765625,291.54531267194204L897.9134114583334,297.4544272266184C952.8502604166666,303.3635417812947,1062.7239583333333,315.18177089064733,1117.6608072916667,325.2575521119904C1172.59765625,335.3333333333333,1172.59765625,343.6666666666667,1172.59765625,352C1172.59765625,360.3333333333333,1172.59765625,368.6666666666667,1172.59765625,376.1166666666666C1172.59765625,383.56666666666666,1172.59765625,390.1333333333334,1172.59765625,393.4166666666667L1172.59765625,396.7"/><path marker-end="url(#my-svg_flowchart-pointEnd)" style="fill:none;" class="edge-thickness-normal edge-pattern-solid flowchart-link LS-ServicePlugins LE-Leases" id="L-ServicePlugins-Leases-0" d="M842.9765625,289.5933123187846L925.5696614583334,295.82776026565386C1008.1627604166666,302.0622082125231,1173.3489583333333,314.5311041062616,1255.9420572916667,324.93221871979745C1338.53515625,335.3333333333333,1338.53515625,343.6666666666667,1338.53515625,352C1338.53515625,360.3333333333333,1338.53515625,368.6666666666667,1338.53515625,376.1166666666666C1338.53515625,383.56666666666666,1338.53515625,390.1333333333334,1338.53515625,393.4166666666667L1338.53515625,396.7"/><path marker-end="url(#my-svg_flowchart-pointEnd)" style="fill:none;" class="edge-thickness-normal edge-pattern-solid flowchart-link LS-ServicePlugins LE-Sandbox" id="L-ServicePlugins-Sandbox-0" d="M842.9765625,288.44328605636395L956.5423177083334,294.8694050469699C1070.1080729166667,301.29552403757594,1297.2395833333333,314.147762018788,1410.8053385416667,324.74054767606066C1524.37109375,335.3333333333333,1524.37109375,343.6666666666667,1524.37109375,352C1524.37109375,360.3333333333333,1524.37109375,368.6666666666667,1524.37109375,376.1166666666666C1524.37109375,383.56666666666666,1524.37109375,390.1333333333334,1524.37109375,393.4166666666667L1524.37109375,396.7"/><path marker-end="url(#my-svg_flowchart-pointEnd)" style="fill:none;" class="edge-thickness-normal edge-pattern-solid flowchart-link LS-CRIPlugin LE-ServicePlugins" id="L-CRIPlugin-ServicePlugins-0" d="M130.4609375,193L130.4609375,197.16666666666666C130.4609375,201.33333333333334,130.4609375,209.66666666666666,130.4609375,218C130.4609375,226.33333333333334,130.4609375,234.66666666666666,228.04818308887766,245.12286892473762C325.6354286777553,255.57907118280858,520.8099198555107,268.15814236561715,618.3971654443884,274.4476779570214L715.984411033266,280.73721354842576"/><path marker-end="url(#my-svg_flowchart-pointEnd)" style="fill:none;" class="edge-thickness-normal edge-pattern-solid flowchart-link LS-Metadata LE-BoltDB" id="L-Metadata-BoltDB-0" d="M280.6171875,436L280.6171875,440.1666666666667C280.6171875,444.3333333333333,280.6171875,452.6666666666667,280.6171875,461C280.6171875,469.3333333333333,280.6171875,477.6666666666667,280.6171875,486C280.6171875,494.3333333333333,280.6171875,502.6666666666667,280.6171875,510.1166666666666C280.6171875,517.5666666666667,280.6171875,524.1333333333333,280.6171875,527.4166666666666L280.6171875,530.7"/><path marker-end="url(#my-svg_flowchart-pointEnd)" style="fill:none;" class="edge-thickness-normal edge-pattern-solid flowchart-link LS-Content LE-ContentFS" id="L-Content-ContentFS-0" d="M111.2421875,436L111.2421875,440.1666666666667C111.2421875,444.3333333333333,111.2421875,452.6666666666667,111.2421875,461C111.2421875,469.3333333333333,111.2421875,477.6666666666667,111.2421875,486C111.2421875,494.3333333333333,111.2421875,502.6666666666667,111.2421875,512.201735051473C111.2421875,521.7368034362793,111.2421875,532.4736068725587,111.2421875,537.8420085906982L111.2421875,543.2104103088379"/><path marker-end="url(#my-svg_flowchart-pointEnd)" style="fill:none;" class="edge-thickness-normal edge-pattern-solid flowchart-link LS-Snapshots LE-SnapshotFS" id="L-Snapshots-SnapshotFS-0" d="M464.5703125,436L464.5703125,440.1666666666667C464.5703125,444.3333333333333,464.5703125,452.6666666666667,464.5703125,461C464.5703125,469.3333333333333,464.5703125,477.6666666666667,464.5703125,486C464.5703125,494.3333333333333,464.5703125,502.6666666666667,464.5703125,512.201735051473C464.5703125,521.7368034362793,464.5703125,532.4736068725587,464.5703125,537.8420085906982L464.5703125,543.2104103088379"/><path marker-end="url(#my-svg_flowchart-pointEnd)" style="fill:none;" class="edge-thickness-normal edge-pattern-solid flowchart-link LS-Tasks LE-Shim" id="L-Tasks-Shim-0" d="M1015.84765625,436L1015.84765625,440.1666666666667C1015.84765625,444.3333333333333,1015.84765625,452.6666666666667,1015.84765625,461C1015.84765625,469.3333333333333,1015.84765625,477.6666666666667,1015.84765625,486C1015.84765625,494.3333333333333,1015.84765625,502.6666666666667,1090.0168752623613,514.2429622638219C1164.1860942747228,525.8192578609772,1312.5245322994454,540.6385157219544,1386.6937513118066,548.048144652443L1460.8629703241681,555.4577735829316"/><path marker-end="url(#my-svg_flowchart-pointEnd)" style="fill:none;" class="edge-thickness-normal edge-pattern-solid flowchart-link LS-Shim LE-Runtime" id="L-Shim-Runtime-0" d="M1561.48828125,582.5104103088379L1561.48828125,588.7621453603109C1561.48828125,595.0138804117838,1561.48828125,607.5173505147299,1561.48828125,617.9357522328695C1561.48828125,628.3541539510092,1561.48828125,636.6874872843424,1561.48828125,644.1374872843425C1561.48828125,651.5874872843425,1561.48828125,658.1541539510091,1561.48828125,661.4374872843424L1561.48828125,664.7208206176758"/></g><g class="edgeLabels"><g class="edgeLabel"><g transform="translate(0, 0)" class="label"><foreignObject height="0" width="0"><div style="display: inline-block; white-space: nowrap;" xmlns="http://www.w3.org/1999/xhtml"><span class="edgeLabel"></span></div></foreignObject></g></g><g class="edgeLabel"><g transform="translate(0, 0)" class="label"><foreignObject height="0" width="0"><div style="display: inline-block; white-space: nowrap;" xmlns="http://www.w3.org/1999/xhtml"><span class="edgeLabel"></span></div></foreignObject></g></g><g class="edgeLabel"><g transform="translate(0, 0)" class="label"><foreignObject height="0" width="0"><div style="display: inline-block; white-space: nowrap;" xmlns="http://www.w3.org/1999/xhtml"><span class="edgeLabel"></span></div></foreignObject></g></g><g class="edgeLabel"><g transform="translate(0, 0)" class="label"><foreignObject height="0" width="0"><div style="display: inline-block; white-space: nowrap;" xmlns="http://www.w3.org/1999/xhtml"><span class="edgeLabel"></span></div></foreignObject></g></g><g class="edgeLabel"><g transform="translate(0, 0)" class="label"><foreignObject height="0" width="0"><div style="display: inline-block; white-space: nowrap;" xmlns="http://www.w3.org/1999/xhtml"><span class="edgeLabel"></span></div></foreignObject></g></g><g class="edgeLabel"><g transform="translate(0, 0)" class="label"><foreignObject height="0" width="0"><div style="display: inline-block; white-space: nowrap;" xmlns="http://www.w3.org/1999/xhtml"><span class="edgeLabel"></span></div></foreignObject></g></g><g class="edgeLabel"><g transform="translate(0, 0)" class="label"><foreignObject height="0" width="0"><div style="display: inline-block; white-space: nowrap;" xmlns="http://www.w3.org/1999/xhtml"><span class="edgeLabel"></span></div></foreignObject></g></g><g class="edgeLabel"><g transform="translate(0, 0)" class="label"><foreignObject height="0" width="0"><div style="display: inline-block; white-space: nowrap;" xmlns="http://www.w3.org/1999/xhtml"><span class="edgeLabel"></span></div></foreignObject></g></g><g class="edgeLabel"><g transform="translate(0, 0)" class="label"><foreignObject height="0" width="0"><div style="display: inline-block; white-space: nowrap;" xmlns="http://www.w3.org/1999/xhtml"><span class="edgeLabel"></span></div></foreignObject></g></g><g class="edgeLabel"><g transform="translate(0, 0)" class="label"><foreignObject height="0" width="0"><div style="display: inline-block; white-space: nowrap;" xmlns="http://www.w3.org/1999/xhtml"><span class="edgeLabel"></span></div></foreignObject></g></g><g class="edgeLabel"><g transform="translate(0, 0)" class="label"><foreignObject height="0" width="0"><div style="display: inline-block; white-space: nowrap;" xmlns="http://www.w3.org/1999/xhtml"><span class="edgeLabel"></span></div></foreignObject></g></g><g class="edgeLabel"><g transform="translate(0, 0)" class="label"><foreignObject height="0" width="0"><div style="display: inline-block; white-space: nowrap;" xmlns="http://www.w3.org/1999/xhtml"><span class="edgeLabel"></span></div></foreignObject></g></g><g class="edgeLabel"><g transform="translate(0, 0)" class="label"><foreignObject height="0" width="0"><div style="display: inline-block; white-space: nowrap;" xmlns="http://www.w3.org/1999/xhtml"><span class="edgeLabel"></span></div></foreignObject></g></g><g class="edgeLabel"><g transform="translate(0, 0)" class="label"><foreignObject height="0" width="0"><div style="display: inline-block; white-space: nowrap;" xmlns="http://www.w3.org/1999/xhtml"><span class="edgeLabel"></span></div></foreignObject></g></g><g class="edgeLabel"><g transform="translate(0, 0)" class="label"><foreignObject height="0" width="0"><div style="display: inline-block; white-space: nowrap;" xmlns="http://www.w3.org/1999/xhtml"><span class="edgeLabel"></span></div></foreignObject></g></g><g class="edgeLabel"><g transform="translate(0, 0)" class="label"><foreignObject height="0" width="0"><div style="display: inline-block; white-space: nowrap;" xmlns="http://www.w3.org/1999/xhtml"><span class="edgeLabel"></span></div></foreignObject></g></g><g class="edgeLabel"><g transform="translate(0, 0)" class="label"><foreignObject height="0" width="0"><div style="display: inline-block; white-space: nowrap;" xmlns="http://www.w3.org/1999/xhtml"><span class="edgeLabel"></span></div></foreignObject></g></g><g class="edgeLabel"><g transform="translate(0, 0)" class="label"><foreignObject height="0" width="0"><div style="display: inline-block; white-space: nowrap;" xmlns="http://www.w3.org/1999/xhtml"><span class="edgeLabel"></span></div></foreignObject></g></g><g class="edgeLabel"><g transform="translate(0, 0)" class="label"><foreignObject height="0" width="0"><div style="display: inline-block; white-space: nowrap;" xmlns="http://www.w3.org/1999/xhtml"><span class="edgeLabel"></span></div></foreignObject></g></g><g class="edgeLabel"><g transform="translate(0, 0)" class="label"><foreignObject height="0" width="0"><div style="display: inline-block; white-space: nowrap;" xmlns="http://www.w3.org/1999/xhtml"><span class="edgeLabel"></span></div></foreignObject></g></g></g><g class="nodes"><g transform="translate(280.6171875, 565.5104103088379)" id="flowchart-BoltDB-22" class="node default default flowchart-label"><path transform="translate(-31.2890625,-29.510412328196587)" d="M 0,8.34027488546439 a 31.2890625,8.34027488546439 0,0,0 62.578125 0 a 31.2890625,8.34027488546439 0,0,0 -62.578125 0 l 0,42.34027488546439 a 31.2890625,8.34027488546439 0,0,0 62.578125 0 l 0,-42.34027488546439" style=""/><g transform="translate(-23.7890625, -9.5)" style="" class="label"><rect/><foreignObject height="19" width="47.578125"><div style="display: inline-block; white-space: nowrap;" xmlns="http://www.w3.org/1999/xhtml"><span class="nodeLabel">BoltDB</span></div></foreignObject></g></g><g transform="translate(111.2421875, 565.5104103088379)" id="flowchart-ContentFS-23" class="node default default flowchart-label"><rect height="34" width="152.484375" y="-17" x="-76.2421875" ry="0" rx="0" style="" class="basic label-container"/><g transform="translate(-68.7421875, -9.5)" style="" class="label"><rect/><foreignObject height="19" width="137.484375"><div style="display: inline-block; white-space: nowrap;" xmlns="http://www.w3.org/1999/xhtml"><span class="nodeLabel">Content Filesystem</span></div></foreignObject></g></g><g transform="translate(464.5703125, 565.5104103088379)" id="flowchart-SnapshotFS-24" class="node default default flowchart-label"><rect height="34" width="159.328125" y="-17" x="-79.6640625" ry="0" rx="0" style="" class="basic label-container"/><g transform="translate(-72.1640625, -9.5)" style="" class="label"><rect/><foreignObject height="19" width="144.328125"><div style="display: inline-block; white-space: nowrap;" xmlns="http://www.w3.org/1999/xhtml"><span class="nodeLabel">Snapshot Filesystem</span></div></foreignObject></g></g><g transform="translate(1561.48828125, 565.5104103088379)" id="flowchart-Shim-20" class="node default default flowchart-label"><rect height="34" width="190.703125" y="-17" x="-95.3515625" ry="0" rx="0" style="" class="basic label-container"/><g transform="translate(-87.8515625, -9.5)" style="" class="label"><rect/><foreignObject height="19" width="175.703125"><div style="display: inline-block; white-space: nowrap;" xmlns="http://www.w3.org/1999/xhtml"><span class="nodeLabel">containerd-shim-runc-v2</span></div></foreignObject></g></g><g transform="translate(1561.48828125, 687.0208206176758)" id="flowchart-Runtime-21" class="node default default flowchart-label"><rect height="34" width="146.203125" y="-17" x="-73.1015625" ry="0" rx="0" style="" class="basic label-container"/><g transform="translate(-65.6015625, -9.5)" style="" class="label"><rect/><foreignObject height="19" width="131.203125"><div style="display: inline-block; white-space: nowrap;" xmlns="http://www.w3.org/1999/xhtml"><span class="nodeLabel">OCI Runtime: runc</span></div></foreignObject></g></g><g transform="translate(782.125, 285)" id="flowchart-ServicePlugins-14" class="node default default flowchart-label"><rect height="34" width="121.703125" y="-17" x="-60.8515625" ry="0" rx="0" style="" class="basic label-container"/><g transform="translate(-53.3515625, -9.5)" style="" class="label"><rect/><foreignObject height="19" width="106.703125"><div style="display: inline-block; white-space: nowrap;" xmlns="http://www.w3.org/1999/xhtml"><span class="nodeLabel">Service Plugins</span></div></foreignObject></g></g><g transform="translate(1049.0078125, 285)" id="flowchart-RuntimePlugins-15" class="node default default flowchart-label"><rect height="34" width="129.265625" y="-17" x="-64.6328125" ry="0" rx="0" style="" class="basic label-container"/><g transform="translate(-57.1328125, -9.5)" style="" class="label"><rect/><foreignObject height="19" width="114.265625"><div style="display: inline-block; white-space: nowrap;" xmlns="http://www.w3.org/1999/xhtml"><span class="nodeLabel">Runtime Plugins</span></div></foreignObject></g></g><g transform="translate(1230.6015625, 285)" id="flowchart-SnapshotPlugins-16" class="node default default flowchart-label"><rect height="34" width="133.921875" y="-17" x="-66.9609375" ry="0" rx="0" style="" class="basic label-container"/><g transform="translate(-59.4609375, -9.5)" style="" class="label"><rect/><foreignObject height="19" width="118.921875"><div style="display: inline-block; white-space: nowrap;" xmlns="http://www.w3.org/1999/xhtml"><span class="nodeLabel">Snapshot Plugins</span></div></foreignObject></g></g><g transform="translate(1395.671875, 285)" id="flowchart-DiffPlugins-17" class="node default default flowchart-label"><rect height="34" width="96.21875" y="-17" x="-48.109375" ry="0" rx="0" style="" class="basic label-container"/><g transform="translate(-40.609375, -9.5)" style="" class="label"><rect/><foreignObject height="19" width="81.21875"><div style="display: inline-block; white-space: nowrap;" xmlns="http://www.w3.org/1999/xhtml"><span class="nodeLabel">Diff Plugins</span></div></foreignObject></g></g><g transform="translate(1538.984375, 285)" id="flowchart-GCPlugins-18" class="node default default flowchart-label"><rect height="34" width="90.40625" y="-17" x="-45.203125" ry="0" rx="0" style="" class="basic label-container"/><g transform="translate(-37.703125, -9.5)" style="" class="label"><rect/><foreignObject height="19" width="75.40625"><div style="display: inline-block; white-space: nowrap;" xmlns="http://www.w3.org/1999/xhtml"><span class="nodeLabel">GC Plugins</span></div></foreignObject></g></g><g transform="translate(130.4609375, 176)" id="flowchart-CRIPlugin-19" class="node default default flowchart-label"><rect height="34" width="86.875" y="-17" x="-43.4375" ry="0" rx="0" style="" class="basic label-container"/><g transform="translate(-35.9375, -9.5)" style="" class="label"><rect/><foreignObject height="19" width="71.875"><div style="display: inline-block; white-space: nowrap;" xmlns="http://www.w3.org/1999/xhtml"><span class="nodeLabel">CRI Plugin</span></div></foreignObject></g></g><g transform="translate(111.2421875, 419)" id="flowchart-Content-5" class="node default default flowchart-label"><rect height="34" width="114.453125" y="-17" x="-57.2265625" ry="0" rx="0" style="" class="basic label-container"/><g transform="translate(-49.7265625, -9.5)" style="" class="label"><rect/><foreignObject height="19" width="99.453125"><div style="display: inline-block; white-space: nowrap;" xmlns="http://www.w3.org/1999/xhtml"><span class="nodeLabel">Content Store</span></div></foreignObject></g></g><g transform="translate(280.6171875, 419)" id="flowchart-Metadata-6" class="node default default flowchart-label"><rect height="34" width="124.296875" y="-17" x="-62.1484375" ry="0" rx="0" style="" class="basic label-container"/><g transform="translate(-54.6484375, -9.5)" style="" class="label"><rect/><foreignObject height="19" width="109.296875"><div style="display: inline-block; white-space: nowrap;" xmlns="http://www.w3.org/1999/xhtml"><span class="nodeLabel">Metadata Store</span></div></foreignObject></g></g><g transform="translate(464.5703125, 419)" id="flowchart-Snapshots-7" class="node default default flowchart-label"><rect height="34" width="143.609375" y="-17" x="-71.8046875" ry="0" rx="0" style="" class="basic label-container"/><g transform="translate(-64.3046875, -9.5)" style="" class="label"><rect/><foreignObject height="19" width="128.609375"><div style="display: inline-block; white-space: nowrap;" xmlns="http://www.w3.org/1999/xhtml"><span class="nodeLabel">Snapshot Manager</span></div></foreignObject></g></g><g transform="translate(643.578125, 419)" id="flowchart-Images-8" class="node default default flowchart-label"><rect height="34" width="114.40625" y="-17" x="-57.203125" ry="0" rx="0" style="" class="basic label-container"/><g transform="translate(-49.703125, -9.5)" style="" class="label"><rect/><foreignObject height="19" width="99.40625"><div style="display: inline-block; white-space: nowrap;" xmlns="http://www.w3.org/1999/xhtml"><span class="nodeLabel">Image Service</span></div></foreignObject></g></g><g transform="translate(821.484375, 419)" id="flowchart-Containers-9" class="node default default flowchart-label"><rect height="34" width="141.40625" y="-17" x="-70.703125" ry="0" rx="0" style="" class="basic label-container"/><g transform="translate(-63.203125, -9.5)" style="" class="label"><rect/><foreignObject height="19" width="126.40625"><div style="display: inline-block; white-space: nowrap;" xmlns="http://www.w3.org/1999/xhtml"><span class="nodeLabel">Container Service</span></div></foreignObject></g></g><g transform="translate(1015.84765625, 419)" id="flowchart-Tasks-10" class="node default default flowchart-label"><rect height="34" width="101.765625" y="-17" x="-50.8828125" ry="0" rx="0" style="" class="basic label-container"/><g transform="translate(-43.3828125, -9.5)" style="" class="label"><rect/><foreignObject height="19" width="86.765625"><div style="display: inline-block; white-space: nowrap;" xmlns="http://www.w3.org/1999/xhtml"><span class="nodeLabel">Task Service</span></div></foreignObject></g></g><g transform="translate(1172.59765625, 419)" id="flowchart-Events-11" class="node default default flowchart-label"><rect height="34" width="111.734375" y="-17" x="-55.8671875" ry="0" rx="0" style="" class="basic label-container"/><g transform="translate(-48.3671875, -9.5)" style="" class="label"><rect/><foreignObject height="19" width="96.734375"><div style="display: inline-block; white-space: nowrap;" xmlns="http://www.w3.org/1999/xhtml"><span class="nodeLabel">Event Service</span></div></foreignObject></g></g><g transform="translate(1338.53515625, 419)" id="flowchart-Leases-12" class="node default default flowchart-label"><rect height="34" width="120.140625" y="-17" x="-60.0703125" ry="0" rx="0" style="" class="basic label-container"/><g transform="translate(-52.5703125, -9.5)" style="" class="label"><rect/><foreignObject height="19" width="105.140625"><div style="display: inline-block; white-space: nowrap;" xmlns="http://www.w3.org/1999/xhtml"><span class="nodeLabel">Lease Manager</span></div></foreignObject></g></g><g transform="translate(1524.37109375, 419)" id="flowchart-Sandbox-13" class="node default default flowchart-label"><rect height="34" width="151.53125" y="-17" x="-75.765625" ry="0" rx="0" style="" class="basic label-container"/><g transform="translate(-68.265625, -9.5)" style="" class="label"><rect/><foreignObject height="19" width="136.53125"><div style="display: inline-block; white-space: nowrap;" xmlns="http://www.w3.org/1999/xhtml"><span class="nodeLabel">Sandbox Controller</span></div></foreignObject></g></g><g transform="translate(1846.62890625, 176)" id="flowchart-GRPC-3" class="node default default flowchart-label"><rect height="34" width="113.828125" y="-17" x="-56.9140625" ry="0" rx="0" style="" class="basic label-container"/><g transform="translate(-49.4140625, -9.5)" style="" class="label"><rect/><foreignObject height="19" width="98.828125"><div style="display: inline-block; white-space: nowrap;" xmlns="http://www.w3.org/1999/xhtml"><span class="nodeLabel">gRPC Services</span></div></foreignObject></g></g><g transform="translate(2015.73046875, 176)" id="flowchart-TTRPC-4" class="node default default flowchart-label"><rect height="34" width="124.375" y="-17" x="-62.1875" ry="0" rx="0" style="" class="basic label-container"/><g transform="translate(-54.6875, -9.5)" style="" class="label"><rect/><foreignObject height="19" width="109.375"><div style="display: inline-block; white-space: nowrap;" xmlns="http://www.w3.org/1999/xhtml"><span class="nodeLabel">TTRPC Services</span></div></foreignObject></g></g><g transform="translate(1679.1875, 42)" id="flowchart-CLI-0" class="node default default flowchart-label"><rect height="34" width="154.609375" y="-17" x="-77.3046875" ry="0" rx="0" style="" class="basic label-container"/><g transform="translate(-69.8046875, -9.5)" style="" class="label"><rect/><foreignObject height="19" width="139.609375"><div style="display: inline-block; white-space: nowrap;" xmlns="http://www.w3.org/1999/xhtml"><span class="nodeLabel">CLI Tools: ctr, crictl</span></div></foreignObject></g></g><g transform="translate(1863.2109375, 42)" id="flowchart-SDK-1" class="node default default flowchart-label"><rect height="34" width="113.4375" y="-17" x="-56.71875" ry="0" rx="0" style="" class="basic label-container"/><g transform="translate(-49.21875, -9.5)" style="" class="label"><rect/><foreignObject height="19" width="98.4375"><div style="display: inline-block; white-space: nowrap;" xmlns="http://www.w3.org/1999/xhtml"><span class="nodeLabel">Go Client SDK</span></div></foreignObject></g></g><g transform="translate(2012.84375, 42)" id="flowchart-CRI-2" class="node default default flowchart-label"><rect height="34" width="85.828125" y="-17" x="-42.9140625" ry="0" rx="0" style="" class="basic label-container"/><g transform="translate(-35.4140625, -9.5)" style="" class="label"><rect/><foreignObject height="19" width="70.828125"><div style="display: inline-block; white-space: nowrap;" xmlns="http://www.w3.org/1999/xhtml"><span class="nodeLabel">CRI Client</span></div></foreignObject></g></g></g></g></g></svg>